<?xml version="1.0" encoding="UTF-8" standalone="no"?>
<svg
   xmlns:dc="http://purl.org/dc/elements/1.1/"
   xmlns:cc="http://creativecommons.org/ns#"
   xmlns:rdf="http://www.w3.org/1999/02/22-rdf-syntax-ns#"
   xmlns:svg="http://www.w3.org/2000/svg"
   xmlns="http://www.w3.org/2000/svg"
   viewBox="0 0 467.51251 467.52499"
   height="467.52499"
   width="467.51251"
   xml:space="preserve"
   version="1.1"
   id="svg2"><metadata
     id="metadata8"><rdf:RDF><cc:Work
         rdf:about=""><dc:format>image/svg+xml</dc:format><dc:type
           rdf:resource="http://purl.org/dc/dcmitype/StillImage" /></cc:Work></rdf:RDF></metadata><defs
     id="defs6"><clipPath
       id="clipPath18"
       clipPathUnits="userSpaceOnUse"><path
         id="path20"
         d="m 3368.04,1851.29 c 0,-831.92 -674.44,-1506.392 -1506.35,-1506.392 -832,0 -1506.401,674.472 -1506.401,1506.392 0,832 674.401,1506.42 1506.401,1506.42 831.91,0 1506.35,-674.42 1506.35,-1506.42 z" /></clipPath><radialGradient
       id="radialGradient22"
       spreadMethod="pad"
       gradientTransform="matrix(2775.03,0,0,-2775.03,1901.68,149.26)"
       gradientUnits="userSpaceOnUse"
       r="1"
       cy="0"
       cx="0"
       fy="0"
       fx="0"><stop
         id="stop24"
         offset="0"
         style="stop-opacity:1;stop-color:#cce310" /><stop
         id="stop26"
         offset="1"
         style="stop-opacity:1;stop-color:#80cc28" /></radialGradient></defs><g
     transform="matrix(1.25,0,0,-1.25,0,467.525)"
     id="g10"><g
       transform="scale(0.1,0.1)"
       id="g12"><g
         id="g14"><g
           clip-path="url(#clipPath18)"
           id="g16"><path
             id="path28"
             style="fill:url(#radialGradient22);fill-opacity:1;fill-rule:nonzero;stroke:none"
             d="m 3368.04,1851.29 c 0,-831.92 -674.44,-1506.392 -1506.35,-1506.392 -832,0 -1506.401,674.472 -1506.401,1506.392 0,832 674.401,1506.42 1506.401,1506.42 831.91,0 1506.35,-674.42 1506.35,-1506.42" /></g></g><path
         id="path30"
         style="fill:#80cc28;fill-opacity:1;fill-rule:nonzero;stroke:none"
         d="m 3096.79,988.609 c -287.72,91.411 -715.77,149.501 -1194.15,149.501 -515.81,0 -973.402,-67.46 -1259.288,-171.54 273.82,-376.609 717.608,-621.672 1218.908,-621.672 510.93,0 962.15,254.653 1234.53,643.711" /><path
         id="path32"
         style="fill:#a9b875;fill-opacity:1;fill-rule:nonzero;stroke:none"
         d="M 1870.08,3740.19 C 837.223,3740.19 0,2902.95 0,1870.11 0,837.332 837.223,0 1870.08,0 2902.83,0 3740.1,837.332 3740.1,1870.11 c 0,1032.84 -837.27,1870.08 -1870.02,1870.08 l 0,0 z m 0,-283.67 c 874.72,0 1586.35,-711.67 1586.35,-1586.41 0,-874.77 -711.63,-1586.43 -1586.35,-1586.43 -874.748,0 -1586.412,711.66 -1586.412,1586.43 0,874.74 711.664,1586.41 1586.412,1586.41" /><path
         id="path34"
         style="fill:#ffffff;fill-opacity:1;fill-rule:nonzero;stroke:none"
         d="m 262.727,2677.89 17.875,30.41 131.246,-40.98 0.23,0.39 -100.949,92.5 23.117,39.3 130.359,-42.44 0.25,0.41 -99.472,94.96 16.531,28.13 122.231,-122.54 -21.883,-37.22 -130.735,41.81 -0.254,-0.41 100.325,-93.52 -22.012,-37.44 -166.859,46.64" /><path
         id="path36"
         style="fill:#ffffff;fill-opacity:1;fill-rule:nonzero;stroke:none"
         d="m 399.059,2905.54 22.171,27.45 123.891,-59.93 0.289,0.37 -86.277,106.46 28.66,35.5 122.82,-61.23 0.317,0.36 -84.492,108.69 20.55,25.43 102.934,-139.37 -27.168,-33.64 -123.266,60.7 -0.308,-0.38 85.539,-107.4 -27.321,-33.8 -158.339,70.79" /><path
         id="path38"
         style="fill:#ffffff;fill-opacity:1;fill-rule:nonzero;stroke:none"
         d="m 567.477,3110.21 25.964,23.88 113.625,-77.38 0.352,0.34 -69.684,117.83 33.559,30.88 112.379,-78.52 0.351,0.33 -67.554,119.8 23.996,22.1 81.316,-152.81 -31.781,-29.24 -112.922,78.03 -0.348,-0.34 68.79,-118.65 -31.946,-29.41 -146.097,93.16" /><path
         id="path40"
         style="fill:#ffffff;fill-opacity:1;fill-rule:nonzero;stroke:none"
         d="m 836.781,3170.35 26.512,20.63 20.602,-26.48 -26.473,-20.63 -20.641,26.48" /><path
         id="path42"
         style="fill:#ffffff;fill-opacity:1;fill-rule:nonzero;stroke:none"
         d="m 817.25,3324.32 76.676,52.98 15.043,-21.72 -49.031,-33.88 23.492,-33.98 46.648,32.22 15.012,-21.74 -46.649,-32.23 41.801,-60.46 -27.683,-19.13 -95.309,137.94" /><path
         id="path44"
         style="fill:#ffffff;fill-opacity:1;fill-rule:nonzero;stroke:none"
         d="m 990.449,3352.17 9.551,5.51 c 14.36,8.28 29.57,19.84 19.13,37.91 -10.07,17.46 -27.138,9.56 -41.669,1.17 l -9.563,-5.53 22.551,-39.06 z m -64.847,45.14 31.39,18.12 c 31.192,17.99 67.788,40.5 91.058,0.16 9.83,-17.03 6.57,-37.77 -10.49,-50.93 l 0.22,-0.41 c 8.27,3.93 17.38,-1.32 24.03,-6.09 l 56.01,-43.32 -32.41,-18.71 -43.61,35.23 c -10.4,8.41 -16.54,10.41 -28.79,3.33 l -9.37,-5.39 34.81,-60.28 -29.11,-16.79 -83.738,145.08" /><path
         id="path46"
         style="fill:#ffffff;fill-opacity:1;fill-rule:nonzero;stroke:none"
         d="m 1069.42,3478 30.62,13.86 39.85,-88.13 c 11.79,-26.03 27.82,-39.33 51.22,-28.74 23.38,10.59 24,31.4 12.2,57.42 l -39.86,88.13 30.62,13.85 44.12,-97.52 c 18.5,-40.91 2.93,-68.24 -36.2,-85.94 -39.16,-17.71 -69.95,-11.36 -88.45,29.53 l -44.12,97.54" /><path
         id="path48"
         style="fill:#ffffff;fill-opacity:1;fill-rule:nonzero;stroke:none"
         d="m 1244.39,3553.32 93.59,32.04 8.54,-24.99 -61.77,-21.15 13.38,-39.08 56.57,19.37 8.56,-25 -56.57,-19.37 15.25,-44.51 62.24,21.31 8.56,-25 -94.06,-32.2 -54.29,158.58" /><path
         id="path50"
         style="fill:#ffffff;fill-opacity:1;fill-rule:nonzero;stroke:none"
         d="m 1386.26,3599.97 32.66,7.82 15.75,-65.77 65.3,15.63 -15.75,65.78 32.65,7.82 39,-162.81 -32.65,-7.82 -17.08,71.38 -65.32,-15.65 17.07,-71.37 -32.66,-7.82 -38.97,162.81" /><path
         id="path52"
         style="fill:#ffffff;fill-opacity:1;fill-rule:nonzero;stroke:none"
         d="m 1571.38,3640.72 97.92,13.77 3.67,-26.15 -64.64,-9.08 5.76,-40.86 59.15,8.32 3.68,-26.15 -59.18,-8.31 6.57,-46.58 65.09,9.16 3.7,-26.14 -98.41,-13.83 -23.31,165.85" /><path
         id="path54"
         style="fill:#ffffff;fill-opacity:1;fill-rule:nonzero;stroke:none"
         d="m 1719.32,3659.83 33.55,1.52 3.05,-67.58 67.08,3.05 -3.07,67.57 33.55,1.51 7.56,-167.25 -33.55,-1.52 -3.31,73.33 -67.08,-3.04 3.31,-73.32 -33.53,-1.53 -7.56,167.26" /><path
         id="path56"
         style="fill:#ffffff;fill-opacity:1;fill-rule:nonzero;stroke:none"
         d="m 1901.73,3664.74 33.61,-0.93 -4.6,-167.58 -33.58,0.92 4.57,167.59" /><path
         id="path58"
         style="fill:#ffffff;fill-opacity:1;fill-rule:nonzero;stroke:none"
         d="m 1978.78,3661.51 33.51,-2.39 -10.11,-140.82 64.88,-4.66 -1.87,-26.35 -98.43,7.08 12.02,167.14" /><path
         id="path60"
         style="fill:#ffffff;fill-opacity:1;fill-rule:nonzero;stroke:none"
         d="m 2112.81,3648.71 91.96,-14.65 -4.16,-26.07 -58.77,9.36 -6.5,-40.76 55.94,-8.9 -4.16,-26.07 -55.92,8.89 -11.54,-72.5 -33.17,5.27 26.32,165.43" /><path
         id="path62"
         style="fill:#ffffff;fill-opacity:1;fill-rule:nonzero;stroke:none"
         d="m 2243.85,3626.17 96.12,-22.99 -6.11,-25.66 -63.46,15.16 -9.61,-40.14 58.11,-13.89 -6.14,-25.67 -58.11,13.89 -10.93,-45.74 63.93,-15.3 -6.12,-25.66 -96.64,23.09 38.96,162.91" /><path
         id="path64"
         style="fill:#ffffff;fill-opacity:1;fill-rule:nonzero;stroke:none"
         d="m 2386.66,3590.48 39.04,-13.34 19.91,-139.21 0.43,-0.15 40.56,118.54 30.39,-10.4 -54.17,-158.52 -38.83,13.28 -20.11,139.28 -0.45,0.16 -40.55,-118.55 -30.43,10.4 54.21,158.51" /><path
         id="path66"
         style="fill:#ffffff;fill-opacity:1;fill-rule:nonzero;stroke:none"
         d="m 2507.1,3423.73 10.42,24.22 57.92,-25.02 -10.42,-24.22 -57.92,25.02" /><path
         id="path68"
         style="fill:#ffffff;fill-opacity:1;fill-rule:nonzero;stroke:none"
         d="m 2646.5,3413.3 12.17,-6.29 c 12.55,-6.54 29.58,-11.82 37.53,3.52 8.95,17.26 -5.52,26.38 -19.18,33.46 l -11.5,5.97 -19.02,-36.66 z m -33.79,-65.22 14.07,-7.3 c 13.85,-7.17 32.47,-12.5 41.42,4.77 10.05,19.39 -4.2,30.56 -19.1,38.29 l -14.06,7.29 -22.33,-43.05 z m 35.11,140.8 52,-26.96 c 19.22,-9.95 45.13,-30.4 28.22,-63.01 -9.17,-17.69 -27.51,-23.87 -46.89,-17.9 l -0.21,-0.44 c 19.27,-12.41 26.04,-33.22 16.56,-51.56 -19.48,-37.51 -56.03,-25.59 -74.78,-15.87 l -51.99,26.96 77.09,148.78" /><path
         id="path70"
         style="fill:#ffffff;fill-opacity:1;fill-rule:nonzero;stroke:none"
         d="m 2775.21,3250.77 c 28.69,-18.84 56.05,-0.36 72.62,24.91 16.24,24.68 21.4,57.47 -6.47,75.78 -27.91,18.31 -55.94,0.55 -72.15,-24.13 -16.58,-25.26 -22.68,-57.72 6,-76.56 z m 80.64,122.75 c 43.9,-28.87 49.07,-74.75 21.29,-117.09 -27.81,-42.3 -72.11,-56.84 -116.44,-27.73 -44.94,29.53 -48.94,74.96 -20.78,117.87 28.21,42.93 71.39,56.2 115.93,26.95" /><path
         id="path72"
         style="fill:#ffffff;fill-opacity:1;fill-rule:nonzero;stroke:none"
         d="m 2960.59,3297.41 31.81,-26.35 -30.73,-137.28 0.38,-0.3 79.91,96.56 24.81,-20.53 -106.89,-129.1 -31.62,26.18 30.53,137.45 -0.38,0.29 -79.88,-96.55 -24.81,20.51 106.87,129.12" /><path
         id="path74"
         style="fill:#ffffff;fill-opacity:1;fill-rule:nonzero;stroke:none"
         d="m 3106.21,3173.11 28.83,-29.59 -45.18,-133.23 0.35,-0.34 89.75,87.49 22.46,-23.05 -120.06,-116.99 -28.63,29.42 45.02,133.39 -0.34,0.34 -89.76,-87.47 -22.48,23.04 120.04,116.99" /><path
         id="path76"
         style="fill:#ffffff;fill-opacity:1;fill-rule:nonzero;stroke:none"
         d="m 3129.41,2952.75 21.65,-25.68 -25.69,-21.64 -21.61,25.7 25.65,21.62" /><path
         id="path78"
         style="fill:#ffffff;fill-opacity:1;fill-rule:nonzero;stroke:none"
         d="m 3190.27,2866.31 11,-15.16 c 16.49,-22.73 49.31,-32.44 78.85,-11.02 29.53,21.41 30.51,55.61 14.06,78.35 l -11.02,15.16 -92.89,-67.33 z m 94.55,110.04 26.92,-37.13 c 30.15,-41.58 42.79,-88.45 -11.07,-127.47 -53.79,-39.03 -94.43,-12.43 -124.59,29.15 l -26.89,37.11 135.63,98.34" /><path
         id="path80"
         style="fill:#ffffff;fill-opacity:1;fill-rule:nonzero;stroke:none"
         d="m 3392.8,2821.29 50.27,-85.16 -22.74,-13.43 -33.2,56.22 -35.54,-20.99 30.36,-51.47 -22.73,-13.42 -30.39,51.46 -40.49,-23.92 33.46,-56.64 -22.77,-13.42 -50.53,85.57 144.3,85.2" /><path
         id="path82"
         style="fill:#ffffff;fill-opacity:1;fill-rule:nonzero;stroke:none"
         d="m 140.738,1374.47 5.633,-17.64 c 8.453,-26.43 36.262,-45.69 70.633,-34.77 34.348,10.9 45.867,42.66 37.43,69.08 l -5.633,17.64 -108.063,-34.31 z m 122.825,73.82 13.785,-43.13 c 15.441,-48.37 12.808,-96.23 -49.821,-116.11 -62.605,-19.89 -92.523,17.64 -107.972,65.99 l -13.789,43.15 157.797,50.1" /><path
         id="path84"
         style="fill:#ffffff;fill-opacity:1;fill-rule:nonzero;stroke:none"
         d="m 306.973,1226.59 -0.172,0.43 -72.262,-4.56 18.879,-44.58 53.555,48.71 z m 23.457,29.75 14.629,-34.48 -127.075,-124.4 -14.351,33.83 29.394,27.89 -26.211,61.83 -40.582,-1.5 -13.437,31.67 177.633,5.16" /><path
         id="path86"
         style="fill:#ffffff;fill-opacity:1;fill-rule:nonzero;stroke:none"
         d="m 389.504,1063.23 c -0.875,11.33 -3.977,22.82 -9.375,33.09 -5.309,10.12 -16.539,20.78 -32.5,12.42 -25.379,-13.37 19.094,-71.93 -30.012,-97.72 -32.105,-16.872 -57.613,2.13 -73.168,31.69 -8.394,15.96 -10.047,24.18 -14.097,40.53 l 27.875,11.14 c -0.161,-12.91 2.355,-26.33 8.429,-37.84 5.824,-11.13 19.336,-23.06 32.547,-16.11 27.906,14.66 -17.394,72.79 31.063,98.28 32.726,17.17 58.047,-1.92 71.621,-27.72 6.613,-12.6 11.121,-25.23 13.176,-37.79 l -25.559,-9.97" /><path
         id="path88"
         style="fill:#ffffff;fill-opacity:1;fill-rule:nonzero;stroke:none"
         d="m 460.449,1001.69 23.172,-33.499 -65.961,-122.211 0.278,-0.378 101.808,70.3 18.067,-26.132 -136.153,-94.008 -23.027,33.367 65.824,122.351 -0.277,0.391 -101.817,-70.281 -18.047,26.121 136.133,93.979" /><path
         id="path90"
         style="fill:#ffffff;fill-opacity:1;fill-rule:nonzero;stroke:none"
         d="m 552.262,871.922 61.937,-75.481 -20.152,-16.582 -40.895,49.86 -31.511,-25.821 37.441,-45.636 -20.152,-16.551 -37.426,45.648 -35.93,-29.449 41.203,-50.199 -20.144,-16.539 -62.246,75.867 127.875,104.883" /><path
         id="path92"
         style="fill:#ffffff;fill-opacity:1;fill-rule:nonzero;stroke:none"
         d="m 630.938,740.23 -32.672,34.411 18.937,17.961 88.188,-92.93 -18.922,-17.942 -32.668,34.418 -101.156,-95.976 -22.864,24.078 101.157,95.98" /><path
         id="path94"
         style="fill:#ffffff;fill-opacity:1;fill-rule:nonzero;stroke:none"
         d="m 611.16,598.629 133.227,30.66 -55.223,50.332 17.57,19.258 81.356,-74.109 -18.219,-19.989 -133.738,-30.199 59.242,-53.973 -17.559,-19.289 -84.851,77.34 18.195,19.969" /><path
         id="path96"
         style="fill:#ffffff;fill-opacity:1;fill-rule:nonzero;stroke:none"
         d="m 783.469,624.371 28,-20.781 -54.008,-124.442 0.371,-0.257 101.453,89.289 36.219,-26.84 -55.375,-123.442 0.383,-0.296 103.765,87.609 25.899,-19.16 -133.223,-107.059 -34.297,25.399 54.778,123.918 -0.383,0.273 -102.418,-88.602 -34.488,25.571 63.324,158.82" /><path
         id="path98"
         style="fill:#ffffff;fill-opacity:1;fill-rule:nonzero;stroke:none"
         d="m 976.094,486.129 83.826,-50.18 -13.39,-22.347 -55.339,33.109 -20.925,-34.992 50.664,-30.321 -13.39,-22.347 -50.677,30.301 -23.843,-39.852 55.75,-33.371 -13.387,-22.379 -84.238,50.422 84.949,141.957" /><path
         id="path100"
         style="fill:#ffffff;fill-opacity:1;fill-rule:nonzero;stroke:none"
         d="m 1074.75,348.609 9.77,-4.898 c 14.64,-7.32 32.48,-13.609 41.66,4.848 8.89,17.812 -6.92,27.601 -21.79,35.031 l -9.74,4.859 -19.9,-39.84 z m 1.8,78.039 32.06,-15.988 c 31.84,-15.941 70.35,-33.89 49.84,-75.031 -8.67,-17.391 -27.53,-25.977 -47.71,-19.07 l -0.19,-0.43 c 7.74,-4.688 8.39,-15.09 8.08,-23.149 l -5.1,-69.761 -33.12,16.543 5.23,55.168 c 1.26,13.14 -0.44,19.3 -12.96,25.539 l -9.56,4.781 -30.68,-61.508 -29.73,14.887 73.84,148.019" /><path
         id="path102"
         style="fill:#ffffff;fill-opacity:1;fill-rule:nonzero;stroke:none"
         d="m 1196.86,367.469 30.83,-12.387 -26.5,-66.012 81.95,43.719 37.88,-15.168 -92.23,-47.031 33.22,-107.641 -40.27,16.199 -26.65,93.461 -0.44,0.18 -28.61,-71.309 -30.82,12.36 61.64,153.629" /><path
         id="path104"
         style="fill:#ffffff;fill-opacity:1;fill-rule:nonzero;stroke:none"
         d="m 1389.59,296.48 88.66,-24.55 -6.95,-25.121 -56.67,15.703 -10.87,-39.332 53.94,-14.918 -6.96,-25.141 -53.92,14.949 -19.34,-69.929 -32,8.82 44.11,159.519" /><path
         id="path106"
         style="fill:#ffffff;fill-opacity:1;fill-rule:nonzero;stroke:none"
         d="m 1602.93,291.41 -5.22,-27.019 -27.02,5.191 5.23,27.027 27.01,-5.199 z m -80.21,-12.531 5.23,26.992 27.01,-5.191 -5.21,-27.02 -27.03,5.219 z m -31.98,-10.488 32.62,-6.309 -18.11,-93.793 c -5.35,-27.707 0,-47.57 24.92,-52.41 24.93,-4.828 37.26,11.66 42.61,39.32 l 18.1,93.852 32.6,-6.309 -20.02,-103.82 c -8.41,-43.5236 -36.55,-56.6837 -78.23,-48.6329 -41.68,8.0312 -62.91,30.7309 -54.52,74.2809 l 20.03,103.821" /><path
         id="path108"
         style="fill:#ffffff;fill-opacity:1;fill-rule:nonzero;stroke:none"
         d="m 1668.7,166.789 10.86,-1.148 c 16.27,-1.68 35.17,-1.282 37.3,19.269 2.06,19.809 -16.18,23.399 -32.69,25.09 l -10.86,1.141 -4.61,-44.352 z m -25.72,73.77 35.62,-3.75 c 35.4,-3.661 77.77,-6.899 73.01,-52.668 -2.02,-19.352 -16.66,-34.032 -37.96,-34.653 l -0.06,-0.508 c 8.9,-1.621 13.16,-11.121 15.69,-18.8 l 19.73,-67.1409 -36.82,3.8515 -14.45,53.4494 c -3.45,12.781 -7.2,17.941 -21.12,19.39 l -10.62,1.102 -7.12,-68.3906 -33.04,3.4375 17.14,164.6801" /><path
         id="path110"
         style="fill:#ffffff;fill-opacity:1;fill-rule:nonzero;stroke:none"
         d="m 1819.64,224.73 35.56,0.579 44.56,-129.1801 0.46,0 39.83,130.5431 32.95,0.527 -52.99,-166.3201 -40.78,-0.6484 -59.59,164.4995" /><path
         id="path112"
         style="fill:#ffffff;fill-opacity:1;fill-rule:nonzero;stroke:none"
         d="m 2032.23,200.5 -0.45,-0.039 -17.19,-70.281 48.12,4.742 -30.48,65.578 z m -21.41,31.242 37.28,3.656 80.81,-158.316 -36.58,-3.582 -17.85,36.359 -66.77,-6.527 -10.68,-39.1718 -34.2,-3.3594 47.99,170.9412" /><path
         id="path114"
         style="fill:#ffffff;fill-opacity:1;fill-rule:nonzero;stroke:none"
         d="m 2137.13,221.051 -46.75,-8 -4.43,25.719 126.21,21.628 4.41,-25.718 -46.74,-8.008 23.6,-137.4025 -32.74,-5.5976 -23.56,137.3791" /><path
         id="path116"
         style="fill:#ffffff;fill-opacity:1;fill-rule:nonzero;stroke:none"
         d="m 2223.09,263.711 95.08,22.277 5.97,-25.386 -62.78,-14.711 9.31,-39.672 57.49,13.441 5.95,-25.43 -57.49,-13.421 10.61,-45.258 63.29,14.84 5.96,-25.411 -95.59,-22.371 -37.8,161.102" /><path
         id="path118"
         style="fill:#ffffff;fill-opacity:1;fill-rule:nonzero;stroke:none"
         d="m 2388.23,234.211 10.4,3.371 c 15.56,5.066 32.65,13.129 26.26,32.727 -6.14,18.902 -24.26,14.742 -40.07,9.589 l -10.37,-3.359 13.78,-42.328 z m -53.44,56.859 34.06,11.071 c 33.87,11.031 73.89,25.281 88.13,-18.442 6.01,-18.457 -1.4,-37.828 -20.62,-47.051 l 0.16,-0.468 c 8.78,2.129 16.54,-4.84 21.96,-10.77 l 45.3,-53.32 -35.19,-11.43 -34.95,42.961 c -8.33,10.258 -13.86,13.418 -27.17,9.121 l -10.13,-3.332 21.26,-65.328 -31.57,-10.281 -51.24,157.269" /><path
         id="path120"
         style="fill:#ffffff;fill-opacity:1;fill-rule:nonzero;stroke:none"
         d="m 2514.85,212.969 32.05,12.511 1.46,-63.031 -26.08,-10.168 -7.43,60.688" /><path
         id="path122"
         style="fill:#ffffff;fill-opacity:1;fill-rule:nonzero;stroke:none"
         d="m 2570.56,376.988 46.92,24.934 93.63,-92.231 0.41,0.219 -24.06,129.172 46.92,24.887 77.66,-146.059 -28.08,-14.91 -64.07,120.531 -0.42,-0.222 24.67,-141.399 -28.09,-14.922 -103.42,99.602 -0.22,-0.641 63.84,-120.097 -28.09,-14.922 -77.6,146.058" /><path
         id="path124"
         style="fill:#ffffff;fill-opacity:1;fill-rule:nonzero;stroke:none"
         d="m 2749.92,474.98 27.46,18.661 53.7,-79.02 c 15.88,-23.359 33.71,-33.582 54.73,-19.301 20.97,14.231 18.03,34.602 2.15,57.91 l -53.72,79.04 27.45,18.66 59.45,-87.469 c 24.93,-36.672 14.41,-65.891 -20.67,-89.719 -35.12,-23.902 -66.18,-22.902 -91.09,13.77 l -59.46,87.468" /><path
         id="path126"
         style="fill:#ffffff;fill-opacity:1;fill-rule:nonzero;stroke:none"
         d="m 2920.01,564 -36.92,-29.801 -16.37,20.301 99.68,80.371 16.36,-20.25 -36.9,-29.781 87.54,-108.36 -25.87,-20.859 L 2920.01,564" /><path
         id="path128"
         style="fill:#ffffff;fill-opacity:1;fill-rule:nonzero;stroke:none"
         d="m 3012.98,643.441 -34.6,-32.41 -17.81,19.02 93.41,87.539 17.82,-19.051 -34.61,-32.41 95.16,-101.789 -24.2,-22.711 -95.17,101.812" /><path
         id="path130"
         style="fill:#ffffff;fill-opacity:1;fill-rule:nonzero;stroke:none"
         d="m 3060.12,724.582 66.39,71.648 19.14,-17.73 -43.82,-47.27 29.93,-27.742 40.11,43.301 19.11,-17.73 -40.13,-43.278 34.1,-31.609 44.15,47.648 19.13,-17.718 -66.69,-71.993 -121.42,112.473" /><path
         id="path132"
         style="fill:#ffffff;fill-opacity:1;fill-rule:nonzero;stroke:none"
         d="m 3214.82,792.48 6.8,8.52 c 10.21,12.801 19.97,28.941 3.84,41.762 -15.58,12.41 -28.41,-1.02 -38.72,-14.02 l -6.8,-8.523 34.88,-27.739 z m -75.94,17.981 22.28,28.019 c 22.13,27.809 47.59,61.782 83.59,33.141 15.25,-12.101 19.74,-32.332 8.83,-50.59 l 0.37,-0.301 c 6.18,6.61 16.49,5.079 24.29,3.11 l 67.19,-19.52 -23,-28.929 -52.84,16.57 c -12.62,3.969 -19.01,3.578 -27.71,-7.371 l -6.62,-8.36 53.8,-42.781 -20.62,-25.957 -129.56,102.969" /><path
         id="path134"
         style="fill:#ffffff;fill-opacity:1;fill-rule:nonzero;stroke:none"
         d="m 3332.02,844.559 19.83,28.082 36,-51.762 -16.1,-22.859 -39.73,46.539" /><path
         id="path136"
         style="fill:#ffffff;fill-opacity:1;fill-rule:nonzero;stroke:none"
         d="m 3288.05,1015.37 16.4,28.9 61.84,-35.21 -32.29,87.12 20.19,35.43 34.13,-97.7 111.15,18.33 -21.45,-37.72 -96.23,-13.72 -0.24,-0.41 66.78,-38.019 -16.41,-28.832 -143.87,81.831" /><path
         id="path138"
         style="fill:#ffffff;fill-opacity:1;fill-rule:nonzero;stroke:none"
         d="m 3358.02,1142.54 14.62,29.79 148.61,-73.02 -14.66,-29.81 -148.57,73.04" /><path
         id="path140"
         style="fill:#ffffff;fill-opacity:1;fill-rule:nonzero;stroke:none"
         d="m 3384.02,1193.15 15.58,37.68 138.45,10.89 0.16,0.42 -114.29,47.35 12.12,29.35 152.85,-63.31 -15.47,-37.44 -138.52,-11.11 -0.2,-0.42 114.31,-47.38 -12.12,-29.34 -152.87,63.31" /><path
         id="path142"
         style="fill:#ffffff;fill-opacity:1;fill-rule:nonzero;stroke:none"
         d="m 3586.04,1329.43 5.41,17.68 c 8.18,26.51 -3.63,58.26 -38.06,68.88 -34.4,10.61 -62.01,-8.92 -70.18,-35.44 l -5.43,-17.71 108.26,-33.41 z m -142.95,9.37 13.34,43.34 c 14.92,48.5 44.45,86.31 107.14,66.96 62.74,-19.41 65.84,-67.27 50.93,-115.79 l -13.34,-43.31 -158.07,48.8" /><path
         id="path144"
         style="fill:#ffffff;fill-opacity:1;fill-rule:nonzero;stroke:none"
         d="m 2058.5,1905.44 c 0.43,1 -55.49,493.54 -221.43,606.38 -34.18,25.29 -82.64,42.97 -144.67,71.36 -2.47,1.15 -21.74,12.85 -7.5,29.17 60.39,47.5 99.35,121.04 99.35,203.83 0,143.21 -116.1,259.28 -259.32,259.28 -143.21,0 -259.3,-116.07 -259.3,-259.28 0,-78.81 35.26,-149.3 90.77,-196.84 10.07,-13.25 -6.69,-27.51 -10.06,-28.53 -65.63,-20.22 -146.35,-79.08 -146.35,-79.08 -179.15,-91.25 -243.584,-714.4 -243.142,-715.4 3.218,-51.37 -22.285,-224.66 36.355,-226.73 l 69.367,-1.85 c 109.48,12.46 68.12,87.92 85.87,153.96 2.12,8.31 30.17,273.74 32.39,281.81 -4.4,-110.7 -0.85,-565.33 -0.85,-572.11 0,-34.92 16.77,-702.211 30.86,-729.988 26.83,-52.934 75.34,-88.352 130.73,-88.352 47.45,0 89.78,25.942 117.86,66.59 11.42,16.57 25.78,461.63 45.22,630.4 1.04,-0.03 7.33,0.02 9.55,0.04 16.75,-160.82 35.41,-616.389 42.29,-630.53 25.89,-52.961 72.69,-88.32 126.07,-88.32 45.64,0 86.53,25.98 113.57,66.602 18.98,28.5 31.1,609.028 33.44,742.658 12.83,94.77 12.13,488.82 7.44,624.84 1.34,-5.14 28.56,-298.44 29.89,-303.64 17.74,-66.04 -23.65,-141.5 85.86,-153.96 l 25.72,1.85 c 58.65,2.07 85.22,279.26 80.02,335.84" /><path
         id="path146"
         style="fill:#ffffff;fill-opacity:1;fill-rule:nonzero;stroke:none"
         d="m 2671.25,1791.07 c 0.4,0.94 -30.24,499.79 -185.84,605.61 -33.35,24.65 -48.69,35.07 -25.63,70.15 56.64,44.54 93.14,113.52 93.14,191.19 0,134.31 -108.9,243.16 -243.2,243.16 -134.32,0 -243.24,-108.85 -243.24,-243.16 0,-73.92 33.1,-140.05 85.14,-184.63 36.52,-27.57 -25.92,-76.79 -25.92,-76.79 -168.03,-85.58 -211.68,-670.05 -211.28,-670.99 3.01,-48.18 -20.89,-210.73 34.12,-212.67 l 24.11,-1.72 c 102.7,11.68 88.06,82.46 104.68,144.39 2.01,7.8 28.3,425.84 30.41,433.41 -2.45,-61.22 -50.58,-89.63 -50.05,-222.92 0.14,-27.28 -168.86,-511.74 -168.71,-534.35 0.11,-21.05 169.3,32.94 169.39,18.11 0.17,-23.48 0.25,34.61 0.25,33.48 0,-32.77 11.49,-624.988 17.14,-653.641 10.08,-51.14 22.37,-82.867 74.3,-82.867 44.5,0 76.72,38.078 86.4,62.449 6.96,17.539 36,463.329 54.24,621.619 0.96,0 5.52,0.02 7.59,0.04 15.7,-150.83 80.85,-577.042 84.3,-591.381 11.93,-49.618 25.57,-86 94.06,-82.848 42.76,1.969 53.78,42.75 58.26,62.461 7.09,31.297 -14.11,484.848 -11.95,610.208 62.13,40.4 126.23,-13.99 153.61,13.83 47.63,48.4 -147.2,493.14 -146.61,511.02 4.48,141.83 -45.07,140.34 -48.3,234.79 1.25,-4.82 29.1,-363.07 30.38,-367.95 16.6,-61.92 -22.2,-132.72 80.51,-144.39 l 24.14,1.72 c 55,1.94 59.45,159.61 54.56,212.67" /><path
         id="path148"
         style="fill:#80cc28;fill-opacity:1;fill-rule:nonzero;stroke:none"
         d="m 2159.18,1142.78 c 0.2,0.51 -16.91,280.83 -100.25,337.54 -17.14,12.68 -30.54,21.6 -61.69,35.82 -1.24,0.55 -10.92,6.45 -3.78,14.66 30.35,23.82 49.91,60.8 49.91,102.37 0,71.94 -58.32,130.24 -130.26,130.24 -71.9,0 -130.25,-58.3 -130.25,-130.24 0,-39.57 17.76,-74.97 45.61,-98.85 5.08,-6.65 -3.35,-13.84 -5.05,-14.33 -32.95,-10.16 -73.5,-39.72 -73.5,-39.72 -89.97,-45.85 -100.41,-336.98 -100.2,-337.49 1.6,-25.81 -11.17,-112.83 18.24,-113.9 l 12.96,-0.9 c 55,6.27 34.2,44.16 43.13,77.34 1.07,4.13 15.11,50.18 16.23,54.23 -2.16,-55.6 -0.38,-196.659 -0.38,-200.05 0,-17.539 4.07,-319.82 11.14,-333.738 13.47,-26.621 37.81,-44.403 65.64,-44.403 23.83,0 45.09,13.051 59.2,33.461 5.73,8.309 17.3,198.961 27.08,283.711 0.49,0 3.64,0.02 4.75,0.02 8.42,-80.742 17.82,-265.719 21.27,-272.821 13,-26.609 36.5,-44.371 63.33,-44.371 22.9,0 43.45,13.051 57.05,33.461 9.5,14.321 15.59,262.039 16.76,329.16 6.46,47.59 6.1,147.27 3.75,215.57 0.67,-2.58 14.35,-51.64 15.01,-54.23 8.88,-33.18 -11.87,-71.07 43.13,-77.34 l 12.91,0.9 c 29.45,1.07 20.89,85.47 18.26,113.9" /></g></g></svg>